<svg width="44" height="44" viewBox="0 0 44 44" fill="none" xmlns="http://www.w3.org/2000/svg">
<path d="M21.0977 11.6695C20.3906 10.8209 19.1295 10.7063 18.2809 11.4134C17.4324 12.1205 17.3177 13.3816 18.0248 14.2302L21.0977 11.6695ZM26.7429 21.5678L28.2793 22.8481C28.8974 22.1064 28.8974 21.0291 28.2793 20.2874L26.7429 21.5678ZM18.0248 28.9053C17.3177 29.7539 17.4324 31.015 18.2809 31.7221C19.1295 32.4292 20.3906 32.3146 21.0977 31.466L18.0248 28.9053ZM18.0248 14.2302L25.2064 22.8481L28.2793 20.2874L21.0977 11.6695L18.0248 14.2302ZM25.2064 20.2874L18.0248 28.9053L21.0977 31.466L28.2793 22.8481L25.2064 20.2874ZM22 4.5C31.665 4.5 39.5 12.335 39.5 22L43.5 22C43.5 10.1259 33.8741 0.499999 22 0.5L22 4.5ZM39.5 22C39.5 31.665 31.665 39.5 22 39.5L22 43.5C33.8741 43.5 43.5 33.8741 43.5 22L39.5 22ZM22 39.5C12.335 39.5 4.5 31.665 4.5 22L0.5 22C0.500001 33.8741 10.1259 43.5 22 43.5L22 39.5ZM4.5 22C4.5 12.335 12.335 4.5 22 4.5L22 0.5C10.1259 0.500001 0.499999 10.1259 0.5 22L4.5 22Z" fill="white"/>
</svg>
