<svg width="44" height="44" viewBox="0 0 44 44" fill="none" xmlns="http://www.w3.org/2000/svg">
<path d="M22.769 31.4641C23.4761 32.3126 24.7372 32.4273 25.5858 31.7202C26.4343 31.013 26.549 29.7519 25.8419 28.9033L22.769 31.4641ZM17.1238 21.5658L15.5874 20.2854C14.9693 21.0271 14.9693 22.1045 15.5874 22.8462L17.1238 21.5658ZM25.8419 14.2282C26.549 13.3797 26.4343 12.1186 25.5858 11.4114C24.7372 10.7043 23.4761 10.8189 22.769 11.6675L25.8419 14.2282ZM25.8419 28.9033L18.6603 20.2854L15.5874 22.8462L22.769 31.4641L25.8419 28.9033ZM18.6603 22.8462L25.8419 14.2282L22.769 11.6675L15.5874 20.2854L18.6603 22.8462ZM22 4.5C31.665 4.5 39.5 12.335 39.5 22L43.5 22C43.5 10.1259 33.8741 0.499999 22 0.5L22 4.5ZM39.5 22C39.5 31.665 31.665 39.5 22 39.5L22 43.5C33.8741 43.5 43.5 33.8741 43.5 22L39.5 22ZM22 39.5C12.335 39.5 4.5 31.665 4.5 22L0.5 22C0.500001 33.8741 10.1259 43.5 22 43.5L22 39.5ZM4.5 22C4.5 12.335 12.335 4.5 22 4.5L22 0.5C10.1259 0.500001 0.499999 10.1259 0.5 22L4.5 22Z" fill="white"/>
</svg>
